<?plantuml 1.2026.1?><svg xmlns="http://www.w3.org/2000/svg" xmlns:xlink="http://www.w3.org/1999/xlink" contentStyleType="text/css" data-diagram-type="ACTIVITY" height="776.5625px" preserveAspectRatio="none" style="width:421px;height:776px;background:#FFFFFF;" version="1.1" viewBox="0 0 421 776" width="421.875px" zoomAndPan="magnify"><defs/><g><rect fill="#F1F1F1" height="53.0762" rx="19.5313" ry="19.5313" style="stroke:#181818;stroke-width:0.7813;" width="139.2365" x="169.725" y="17.1875"/><text fill="#000000" font-family="Monospace" font-size="18.75" lengthAdjust="spacing" textLength="107.9865" x="185.35" y="50.2167">el1h_64_irq</text><rect fill="#F1F1F1" height="53.0762" rx="19.5313" ry="19.5313" style="stroke:#181818;stroke-width:0.7813;" width="220.224" x="129.2313" y="101.5137"/><text fill="#000000" font-family="Monospace" font-size="18.75" lengthAdjust="spacing" textLength="188.974" x="144.8563" y="134.5428">el1h_64_irq_handler</text><rect fill="#F1F1F1" height="53.0762" rx="19.5313" ry="19.5313" style="stroke:#181818;stroke-width:0.7813;" width="151.8341" x="163.4262" y="185.8398"/><text fill="#000000" font-family="Monospace" font-size="18.75" lengthAdjust="spacing" textLength="120.5841" x="179.0512" y="218.869">el1_interrupt</text><polygon fill="#F1F1F1" points="165.3229,270.166,313.3636,270.166,332.1136,288.916,313.3636,307.666,165.3229,307.666,146.5729,288.916,165.3229,270.166" style="stroke:#181818;stroke-width:0.7813;"/><text fill="#000000" font-family="Monospace" font-size="17.1875" lengthAdjust="spacing" textLength="148.0408" x="165.3229" y="294.8662">nim,&#160;intc&#160;enable?</text><text fill="#000000" font-family="Monospace" font-size="17.1875" lengthAdjust="spacing" textLength="29.7005" x="116.8724" y="284.8625">yes</text><text fill="#000000" font-family="Monospace" font-size="17.1875" lengthAdjust="spacing" textLength="21.4088" x="332.1136" y="284.8625">no</text><rect fill="#F1F1F1" height="53.0762" rx="19.5313" ry="19.5313" style="stroke:#181818;stroke-width:0.7813;" width="112.8693" x="74.5132" y="323.291"/><text fill="#000000" font-family="Monospace" font-size="18.75" lengthAdjust="spacing" textLength="81.6193" x="90.1382" y="356.3202">__el1_irq</text><rect fill="#F1F1F1" height="53.0762" rx="19.5313" ry="19.5313" style="stroke:#181818;stroke-width:0.7813;" width="154.7363" x="53.5797" y="407.6172"/><text fill="#000000" font-family="Monospace" font-size="18.75" lengthAdjust="spacing" textLength="123.4863" x="69.2047" y="440.6464">irq_enter_rcu</text><rect fill="#F1F1F1" height="53.0762" rx="19.5313" ry="19.5313" style="stroke:#181818;stroke-width:0.7813;" width="227.5208" x="17.1875" y="491.9434"/><text fill="#000000" font-family="Monospace" font-size="18.75" lengthAdjust="spacing" textLength="196.2708" x="32.8125" y="524.9725">do_interrupt_handler</text><rect fill="#F1F1F1" height="53.0762" rx="19.5313" ry="19.5313" style="stroke:#181818;stroke-width:0.7813;" width="139.9139" x="60.9909" y="576.2695"/><text fill="#000000" font-family="Monospace" font-size="18.75" lengthAdjust="spacing" textLength="108.6639" x="76.6159" y="609.2987">irq_exit_rcu</text><rect fill="#F1F1F1" height="53.0762" rx="19.5313" ry="19.5313" style="stroke:#181818;stroke-width:0.7813;" width="116.5588" x="289.4592" y="323.291"/><text fill="#000000" font-family="Monospace" font-size="18.75" lengthAdjust="spacing" textLength="85.3088" x="305.0842" y="356.3202">el1_pnmi</text><polygon fill="#F1F1F1" points="239.3433,638.7207,258.0933,657.4707,239.3433,676.2207,220.5933,657.4707,239.3433,638.7207" style="stroke:#181818;stroke-width:0.7813;"/><rect fill="#F1F1F1" height="53.0762" rx="19.5313" ry="19.5313" style="stroke:#181818;stroke-width:0.7813;" width="154.1504" x="162.2681" y="707.4707"/><text fill="#000000" font-family="Monospace" font-size="18.75" lengthAdjust="spacing" textLength="122.9004" x="177.8931" y="740.4999">ret_to_kernel</text><line style="stroke:#181818;stroke-width:1.5625;" x1="239.3433" x2="239.3433" y1="70.2637" y2="101.5137"/><polygon fill="#181818" points="233.0933,85.8887,239.3433,101.5137,245.5933,85.8887,239.3433,92.1387" style="stroke:#181818;stroke-width:1.5625;"/><line style="stroke:#181818;stroke-width:1.5625;" x1="239.3433" x2="239.3433" y1="154.5898" y2="185.8398"/><polygon fill="#181818" points="233.0933,170.2148,239.3433,185.8398,245.5933,170.2148,239.3433,176.4648" style="stroke:#181818;stroke-width:1.5625;"/><line style="stroke:#181818;stroke-width:1.5625;" x1="130.9479" x2="130.9479" y1="376.3672" y2="407.6172"/><polygon fill="#181818" points="124.6979,391.9922,130.9479,407.6172,137.1979,391.9922,130.9479,398.2422" style="stroke:#181818;stroke-width:1.5625;"/><line style="stroke:#181818;stroke-width:1.5625;" x1="130.9479" x2="130.9479" y1="460.6934" y2="491.9434"/><polygon fill="#181818" points="124.6979,476.3184,130.9479,491.9434,137.1979,476.3184,130.9479,482.5684" style="stroke:#181818;stroke-width:1.5625;"/><line style="stroke:#181818;stroke-width:1.5625;" x1="130.9479" x2="130.9479" y1="545.0195" y2="576.2695"/><polygon fill="#181818" points="124.6979,560.6445,130.9479,576.2695,137.1979,560.6445,130.9479,566.8945" style="stroke:#181818;stroke-width:1.5625;"/><line style="stroke:#181818;stroke-width:1.5625;" x1="146.5729" x2="130.9479" y1="288.916" y2="288.916"/><line style="stroke:#181818;stroke-width:1.5625;" x1="130.9479" x2="130.9479" y1="288.916" y2="323.291"/><polygon fill="#181818" points="124.6979,307.666,130.9479,323.291,137.1979,307.666,130.9479,313.916" style="stroke:#181818;stroke-width:1.5625;"/><line style="stroke:#181818;stroke-width:1.5625;" x1="332.1136" x2="347.7386" y1="288.916" y2="288.916"/><line style="stroke:#181818;stroke-width:1.5625;" x1="347.7386" x2="347.7386" y1="288.916" y2="323.291"/><polygon fill="#181818" points="341.4886,307.666,347.7386,323.291,353.9886,307.666,347.7386,313.916" style="stroke:#181818;stroke-width:1.5625;"/><line style="stroke:#181818;stroke-width:1.5625;" x1="130.9479" x2="130.9479" y1="629.3457" y2="657.4707"/><line style="stroke:#181818;stroke-width:1.5625;" x1="130.9479" x2="220.5933" y1="657.4707" y2="657.4707"/><polygon fill="#181818" points="204.9683,651.2207,220.5933,657.4707,204.9683,663.7207,211.2183,657.4707" style="stroke:#181818;stroke-width:1.5625;"/><line style="stroke:#181818;stroke-width:1.5625;" x1="347.7386" x2="347.7386" y1="376.3672" y2="657.4707"/><line style="stroke:#181818;stroke-width:1.5625;" x1="347.7386" x2="258.0933" y1="657.4707" y2="657.4707"/><polygon fill="#181818" points="273.7183,651.2207,258.0933,657.4707,273.7183,663.7207,267.4683,657.4707" style="stroke:#181818;stroke-width:1.5625;"/><line style="stroke:#181818;stroke-width:1.5625;" x1="239.3433" x2="239.3433" y1="238.916" y2="270.166"/><polygon fill="#181818" points="233.0933,254.541,239.3433,270.166,245.5933,254.541,239.3433,260.791" style="stroke:#181818;stroke-width:1.5625;"/><line style="stroke:#181818;stroke-width:1.5625;" x1="239.3433" x2="239.3433" y1="676.2207" y2="707.4707"/><polygon fill="#181818" points="233.0933,691.8457,239.3433,707.4707,245.5933,691.8457,239.3433,698.0957" style="stroke:#181818;stroke-width:1.5625;"/><?plantuml-src LOqnJiH034NxdCBbhaJ1Ia2nAUZeu0hMaFmerivuPZsE1BTdibaHSEVt_P_hHRG42ubIrZpCbXF8RK5NVvEn29sU7_yIJ669_fRLFq8hlBTkBM50TqOypVpon6BN_j_6Sz0nmZRAeWwpfNZVoKG7bVH0ZGq43PyHhqVo6Kg7RzHZHstEpBVUwhtjgnEhXMrOxcpCktX_k9z_YM_NY1NjQxwxLtFH92tGKQOD6fmzymMcYFqF?></g></svg>